# xmcd
# Track frame offsets:
# 150
# 13530
# 23364
# 34478
# 45876
# 57163
# 70291
# 82836
# 94113
# 106057
# 116441
#
# Disc length: 1721 seconds
# Revision: 0
# Processed by: cddbd v1.5.1PL2 Copyright (c) Steve Scherf et al.
# Submitted via: VisiTrax 2.9.10.228 - For more info visit www.synapsa.com
#
DISCID=7506b70b
DTITLE=Bond.Johnny. - Hot Rod Loncoln
DYEAR=2005
DGENRE=Country
TTITLE0=Hot Rod Loncoln.
TTITLE1=I'll Step Aside.
TTITLE2=Oklohoma Hills.
TTITLE3=Tomorrows Never There.
TTITLE4=Fort Worth.
TTITLE5=Red River Valley.
TTITLE6=Rainbow At Midnight.
TTITLE7=Time Changes.
TTITLE8=I Wonder Where You Are.
TTITLE9=Cimarron.
TTITLE10=Oklahoma Waltz.
EXTD=
EXTT0=
EXTT1=
EXTT2=
EXTT3=
EXTT4=
EXTT5=
EXTT6=
EXTT7=
EXTT8=
EXTT9=
EXTT10=
PLAYORDER=
